<mxfile host="app.diagrams.net" modified="2023-06-15T20:57:24.746Z" agent="Mozilla/5.0 (X11; Linux x86_64; rv:109.0) Gecko/20100101 Firefox/113.0" etag="8dtH1KmPkDzhtuNncToB" version="21.3.8" type="device">
  <diagram id="R2lEEEUBdFMjLlhIrx00" name="Page-1">
    <mxGraphModel dx="1900" dy="1694" grid="1" gridSize="10" guides="1" tooltips="1" connect="1" arrows="1" fold="1" page="1" pageScale="1" pageWidth="850" pageHeight="1100" math="0" shadow="0" extFonts="Permanent Marker^https://fonts.googleapis.com/css?family=Permanent+Marker">
      <root>
        <mxCell id="0" />
        <mxCell id="1" parent="0" />
        <mxCell id="KC0GCR72iDFEBpf8ADcb-1" value="medio_prensa" style="swimlane;childLayout=stackLayout;horizontal=1;startSize=50;horizontalStack=0;rounded=1;fontSize=14;fontStyle=0;strokeWidth=2;resizeParent=0;resizeLast=1;shadow=0;dashed=0;align=center;arcSize=4;whiteSpace=wrap;html=1;" parent="1" vertex="1">
          <mxGeometry x="410" y="240" width="160" height="180" as="geometry" />
        </mxCell>
        <mxCell id="KC0GCR72iDFEBpf8ADcb-2" value="+ id_medio&lt;br&gt;+ nombre&lt;br&gt;+ sitio_web&lt;br&gt;&lt;div&gt;+ cobertura&lt;/div&gt;&lt;div&gt;+ anio_fundacion&lt;br&gt;&lt;/div&gt;" style="align=left;strokeColor=none;fillColor=none;spacingLeft=4;fontSize=12;verticalAlign=top;resizable=0;rotatable=0;part=1;html=1;" parent="KC0GCR72iDFEBpf8ADcb-1" vertex="1">
          <mxGeometry y="50" width="160" height="130" as="geometry" />
        </mxCell>
        <mxCell id="KC0GCR72iDFEBpf8ADcb-3" value="RRSS" style="swimlane;childLayout=stackLayout;horizontal=1;startSize=50;horizontalStack=0;rounded=1;fontSize=14;fontStyle=0;strokeWidth=2;resizeParent=0;resizeLast=1;shadow=0;dashed=0;align=center;arcSize=4;whiteSpace=wrap;html=1;" parent="1" vertex="1">
          <mxGeometry x="410" y="610" width="160" height="120" as="geometry" />
        </mxCell>
        <mxCell id="KC0GCR72iDFEBpf8ADcb-4" value="+ nombre_RRSS&lt;br&gt;+ nombre_cuenta&lt;br&gt;+ seguidores&lt;br&gt;+ ultima_act" style="align=left;strokeColor=none;fillColor=none;spacingLeft=4;fontSize=12;verticalAlign=top;resizable=0;rotatable=0;part=1;html=1;" parent="KC0GCR72iDFEBpf8ADcb-3" vertex="1">
          <mxGeometry y="50" width="160" height="70" as="geometry" />
        </mxCell>
        <mxCell id="KC0GCR72iDFEBpf8ADcb-5" value="Poseer" style="shape=rhombus;perimeter=rhombusPerimeter;whiteSpace=wrap;html=1;align=center;" parent="1" vertex="1">
          <mxGeometry x="430" y="470" width="120" height="60" as="geometry" />
        </mxCell>
        <mxCell id="KC0GCR72iDFEBpf8ADcb-9" value="" style="endArrow=none;html=1;rounded=0;entryX=0.5;entryY=1;entryDx=0;entryDy=0;exitX=0.5;exitY=0;exitDx=0;exitDy=0;" parent="1" source="KC0GCR72iDFEBpf8ADcb-5" target="KC0GCR72iDFEBpf8ADcb-2" edge="1">
          <mxGeometry relative="1" as="geometry">
            <mxPoint x="320" y="480" as="sourcePoint" />
            <mxPoint x="480" y="480" as="targetPoint" />
          </mxGeometry>
        </mxCell>
        <mxCell id="KC0GCR72iDFEBpf8ADcb-10" value="1" style="resizable=0;html=1;whiteSpace=wrap;align=right;verticalAlign=bottom;" parent="KC0GCR72iDFEBpf8ADcb-9" connectable="0" vertex="1">
          <mxGeometry x="1" relative="1" as="geometry">
            <mxPoint y="50" as="offset" />
          </mxGeometry>
        </mxCell>
        <mxCell id="KC0GCR72iDFEBpf8ADcb-11" value="" style="endArrow=none;html=1;rounded=0;entryX=0.5;entryY=0;entryDx=0;entryDy=0;exitX=0.5;exitY=1;exitDx=0;exitDy=0;" parent="1" source="KC0GCR72iDFEBpf8ADcb-5" target="KC0GCR72iDFEBpf8ADcb-3" edge="1">
          <mxGeometry relative="1" as="geometry">
            <mxPoint x="500" y="480" as="sourcePoint" />
            <mxPoint x="500" y="430" as="targetPoint" />
          </mxGeometry>
        </mxCell>
        <mxCell id="KC0GCR72iDFEBpf8ADcb-12" value="N" style="resizable=0;html=1;whiteSpace=wrap;align=right;verticalAlign=bottom;" parent="KC0GCR72iDFEBpf8ADcb-11" connectable="0" vertex="1">
          <mxGeometry x="1" relative="1" as="geometry">
            <mxPoint y="-60" as="offset" />
          </mxGeometry>
        </mxCell>
        <mxCell id="KC0GCR72iDFEBpf8ADcb-13" value="ejemplo_noticia" style="swimlane;childLayout=stackLayout;horizontal=1;startSize=50;horizontalStack=0;rounded=1;fontSize=14;fontStyle=0;strokeWidth=2;resizeParent=0;resizeLast=1;shadow=0;dashed=0;align=center;arcSize=4;whiteSpace=wrap;html=1;" parent="1" vertex="1">
          <mxGeometry x="840" y="120" width="160" height="130" as="geometry" />
        </mxCell>
        <mxCell id="KC0GCR72iDFEBpf8ADcb-14" value="+ url&lt;br&gt;+ xpath_titulo&lt;br&gt;+ xpath_fecha&lt;br&gt;+ xpath_contenido" style="align=left;strokeColor=none;fillColor=none;spacingLeft=4;fontSize=12;verticalAlign=top;resizable=0;rotatable=0;part=1;html=1;" parent="KC0GCR72iDFEBpf8ADcb-13" vertex="1">
          <mxGeometry y="50" width="160" height="80" as="geometry" />
        </mxCell>
        <mxCell id="KC0GCR72iDFEBpf8ADcb-15" value="Tener" style="shape=rhombus;perimeter=rhombusPerimeter;whiteSpace=wrap;html=1;align=center;" parent="1" vertex="1">
          <mxGeometry x="640" y="250" width="120" height="60" as="geometry" />
        </mxCell>
        <mxCell id="KC0GCR72iDFEBpf8ADcb-16" value="" style="endArrow=none;html=1;rounded=0;entryX=0;entryY=0;entryDx=0;entryDy=0;exitX=1;exitY=0.5;exitDx=0;exitDy=0;" parent="1" source="KC0GCR72iDFEBpf8ADcb-15" target="KC0GCR72iDFEBpf8ADcb-14" edge="1">
          <mxGeometry relative="1" as="geometry">
            <mxPoint x="600" y="480" as="sourcePoint" />
            <mxPoint x="760" y="480" as="targetPoint" />
            <Array as="points">
              <mxPoint x="800" y="280" />
              <mxPoint x="800" y="170" />
            </Array>
          </mxGeometry>
        </mxCell>
        <mxCell id="KC0GCR72iDFEBpf8ADcb-17" value="1" style="resizable=0;html=1;whiteSpace=wrap;align=right;verticalAlign=bottom;" parent="KC0GCR72iDFEBpf8ADcb-16" connectable="0" vertex="1">
          <mxGeometry x="1" relative="1" as="geometry">
            <mxPoint x="-70" y="105" as="offset" />
          </mxGeometry>
        </mxCell>
        <mxCell id="KC0GCR72iDFEBpf8ADcb-18" value="" style="endArrow=none;html=1;rounded=0;exitX=0;exitY=0.5;exitDx=0;exitDy=0;entryX=1;entryY=0.25;entryDx=0;entryDy=0;" parent="1" source="KC0GCR72iDFEBpf8ADcb-15" target="KC0GCR72iDFEBpf8ADcb-1" edge="1">
          <mxGeometry relative="1" as="geometry">
            <mxPoint x="600" y="235" as="sourcePoint" />
            <mxPoint x="590" y="300" as="targetPoint" />
          </mxGeometry>
        </mxCell>
        <mxCell id="KC0GCR72iDFEBpf8ADcb-19" value="1" style="resizable=0;html=1;whiteSpace=wrap;align=right;verticalAlign=bottom;" parent="KC0GCR72iDFEBpf8ADcb-18" connectable="0" vertex="1">
          <mxGeometry x="1" relative="1" as="geometry">
            <mxPoint x="70" y="-10" as="offset" />
          </mxGeometry>
        </mxCell>
        <mxCell id="KC0GCR72iDFEBpf8ADcb-20" value="fundador" style="swimlane;childLayout=stackLayout;horizontal=1;startSize=50;horizontalStack=0;rounded=1;fontSize=14;fontStyle=0;strokeWidth=2;resizeParent=0;resizeLast=1;shadow=0;dashed=0;align=center;arcSize=4;whiteSpace=wrap;html=1;" parent="1" vertex="1">
          <mxGeometry x="-10" y="230" width="160" height="90" as="geometry" />
        </mxCell>
        <mxCell id="KC0GCR72iDFEBpf8ADcb-21" value="+ nombre_fundador&lt;br&gt;+ rut" style="align=left;strokeColor=none;fillColor=none;spacingLeft=4;fontSize=12;verticalAlign=top;resizable=0;rotatable=0;part=1;html=1;" parent="KC0GCR72iDFEBpf8ADcb-20" vertex="1">
          <mxGeometry y="50" width="160" height="40" as="geometry" />
        </mxCell>
        <mxCell id="KC0GCR72iDFEBpf8ADcb-22" value="Crear" style="shape=rhombus;perimeter=rhombusPerimeter;whiteSpace=wrap;html=1;align=center;" parent="1" vertex="1">
          <mxGeometry x="210" y="250" width="120" height="60" as="geometry" />
        </mxCell>
        <mxCell id="KC0GCR72iDFEBpf8ADcb-23" value="" style="endArrow=none;html=1;rounded=0;entryX=1;entryY=0.5;entryDx=0;entryDy=0;" parent="1" source="KC0GCR72iDFEBpf8ADcb-22" target="KC0GCR72iDFEBpf8ADcb-20" edge="1">
          <mxGeometry relative="1" as="geometry">
            <mxPoint x="210" y="270" as="sourcePoint" />
            <mxPoint x="140" y="275" as="targetPoint" />
          </mxGeometry>
        </mxCell>
        <mxCell id="KC0GCR72iDFEBpf8ADcb-24" value="N" style="resizable=0;html=1;whiteSpace=wrap;align=right;verticalAlign=bottom;" parent="KC0GCR72iDFEBpf8ADcb-23" connectable="0" vertex="1">
          <mxGeometry x="1" relative="1" as="geometry">
            <mxPoint x="60" as="offset" />
          </mxGeometry>
        </mxCell>
        <mxCell id="KC0GCR72iDFEBpf8ADcb-25" value="" style="endArrow=none;html=1;rounded=0;entryX=-0.028;entryY=0.208;entryDx=0;entryDy=0;exitX=1;exitY=0.5;exitDx=0;exitDy=0;entryPerimeter=0;" parent="1" source="KC0GCR72iDFEBpf8ADcb-22" target="KC0GCR72iDFEBpf8ADcb-1" edge="1">
          <mxGeometry relative="1" as="geometry">
            <mxPoint x="300" y="329.5" as="sourcePoint" />
            <mxPoint x="380" y="329.5" as="targetPoint" />
          </mxGeometry>
        </mxCell>
        <mxCell id="KC0GCR72iDFEBpf8ADcb-26" value="N" style="resizable=0;html=1;whiteSpace=wrap;align=right;verticalAlign=bottom;" parent="KC0GCR72iDFEBpf8ADcb-25" connectable="0" vertex="1">
          <mxGeometry x="1" relative="1" as="geometry">
            <mxPoint x="-66" y="-2" as="offset" />
          </mxGeometry>
        </mxCell>
        <mxCell id="KC0GCR72iDFEBpf8ADcb-27" value="ubicacion" style="swimlane;childLayout=stackLayout;horizontal=1;startSize=50;horizontalStack=0;rounded=1;fontSize=14;fontStyle=0;strokeWidth=2;resizeParent=0;resizeLast=1;shadow=0;dashed=0;align=center;arcSize=4;whiteSpace=wrap;html=1;" parent="1" vertex="1">
          <mxGeometry x="410" y="-80" width="160" height="140" as="geometry" />
        </mxCell>
        <mxCell id="KC0GCR72iDFEBpf8ADcb-28" value="+ continente&lt;br&gt;+ pais&lt;br&gt;+ region&lt;br&gt;&lt;div&gt;+ ciudad&lt;/div&gt;&lt;div&gt;+ id_ubicacion&lt;br&gt;&lt;/div&gt;" style="align=left;strokeColor=none;fillColor=none;spacingLeft=4;fontSize=12;verticalAlign=top;resizable=0;rotatable=0;part=1;html=1;" parent="KC0GCR72iDFEBpf8ADcb-27" vertex="1">
          <mxGeometry y="50" width="160" height="90" as="geometry" />
        </mxCell>
        <mxCell id="KC0GCR72iDFEBpf8ADcb-30" value="Asentar" style="shape=rhombus;perimeter=rhombusPerimeter;whiteSpace=wrap;html=1;align=center;" parent="1" vertex="1">
          <mxGeometry x="430" y="120" width="120" height="60" as="geometry" />
        </mxCell>
        <mxCell id="KC0GCR72iDFEBpf8ADcb-31" value="" style="endArrow=none;html=1;rounded=0;exitX=0.5;exitY=1;exitDx=0;exitDy=0;" parent="1" source="KC0GCR72iDFEBpf8ADcb-30" target="KC0GCR72iDFEBpf8ADcb-1" edge="1">
          <mxGeometry relative="1" as="geometry">
            <mxPoint x="510" y="190" as="sourcePoint" />
            <mxPoint x="586" y="192" as="targetPoint" />
          </mxGeometry>
        </mxCell>
        <mxCell id="KC0GCR72iDFEBpf8ADcb-32" value="N" style="resizable=0;html=1;whiteSpace=wrap;align=right;verticalAlign=bottom;" parent="KC0GCR72iDFEBpf8ADcb-31" connectable="0" vertex="1">
          <mxGeometry x="1" relative="1" as="geometry">
            <mxPoint y="-40" as="offset" />
          </mxGeometry>
        </mxCell>
        <mxCell id="KC0GCR72iDFEBpf8ADcb-33" value="" style="endArrow=none;html=1;rounded=0;entryX=0.5;entryY=1;entryDx=0;entryDy=0;exitX=0.5;exitY=0;exitDx=0;exitDy=0;" parent="1" source="KC0GCR72iDFEBpf8ADcb-30" target="KC0GCR72iDFEBpf8ADcb-28" edge="1">
          <mxGeometry relative="1" as="geometry">
            <mxPoint x="400" y="310" as="sourcePoint" />
            <mxPoint x="560" y="310" as="targetPoint" />
          </mxGeometry>
        </mxCell>
        <mxCell id="KC0GCR72iDFEBpf8ADcb-34" value="1" style="resizable=0;html=1;whiteSpace=wrap;align=right;verticalAlign=bottom;" parent="KC0GCR72iDFEBpf8ADcb-33" connectable="0" vertex="1">
          <mxGeometry x="1" relative="1" as="geometry">
            <mxPoint y="60" as="offset" />
          </mxGeometry>
        </mxCell>
        <mxCell id="KC0GCR72iDFEBpf8ADcb-35" value="categoria" style="swimlane;childLayout=stackLayout;horizontal=1;startSize=50;horizontalStack=0;rounded=1;fontSize=14;fontStyle=0;strokeWidth=2;resizeParent=0;resizeLast=1;shadow=0;dashed=0;align=center;arcSize=4;whiteSpace=wrap;html=1;" parent="1" vertex="1">
          <mxGeometry x="850" y="350" width="160" height="180" as="geometry" />
        </mxCell>
        <mxCell id="KC0GCR72iDFEBpf8ADcb-36" value="+ nombre_categoria&lt;br&gt;+ url_categoria&lt;br&gt;+ url_ejemplo&lt;br&gt;&lt;div&gt;+ xpath&lt;/div&gt;&lt;div&gt;+ id_categoria&lt;br&gt;&lt;/div&gt;" style="align=left;strokeColor=none;fillColor=none;spacingLeft=4;fontSize=12;verticalAlign=top;resizable=0;rotatable=0;part=1;html=1;" parent="KC0GCR72iDFEBpf8ADcb-35" vertex="1">
          <mxGeometry y="50" width="160" height="130" as="geometry" />
        </mxCell>
        <mxCell id="KC0GCR72iDFEBpf8ADcb-37" value="Abordar" style="shape=rhombus;perimeter=rhombusPerimeter;whiteSpace=wrap;html=1;align=center;" parent="1" vertex="1">
          <mxGeometry x="640" y="360" width="120" height="60" as="geometry" />
        </mxCell>
        <mxCell id="KC0GCR72iDFEBpf8ADcb-38" value="" style="endArrow=none;html=1;rounded=0;entryX=0;entryY=0.25;entryDx=0;entryDy=0;exitX=1;exitY=0.5;exitDx=0;exitDy=0;" parent="1" source="KC0GCR72iDFEBpf8ADcb-37" target="KC0GCR72iDFEBpf8ADcb-35" edge="1">
          <mxGeometry relative="1" as="geometry">
            <mxPoint x="700" y="529" as="sourcePoint" />
            <mxPoint x="780" y="529" as="targetPoint" />
          </mxGeometry>
        </mxCell>
        <mxCell id="KC0GCR72iDFEBpf8ADcb-39" value="N" style="resizable=0;html=1;whiteSpace=wrap;align=right;verticalAlign=bottom;" parent="KC0GCR72iDFEBpf8ADcb-38" connectable="0" vertex="1">
          <mxGeometry x="1" relative="1" as="geometry">
            <mxPoint x="-70" y="-5" as="offset" />
          </mxGeometry>
        </mxCell>
        <mxCell id="KC0GCR72iDFEBpf8ADcb-40" value="" style="endArrow=none;html=1;rounded=0;entryX=1;entryY=0.75;entryDx=0;entryDy=0;exitX=0;exitY=0.5;exitDx=0;exitDy=0;" parent="1" source="KC0GCR72iDFEBpf8ADcb-37" target="KC0GCR72iDFEBpf8ADcb-2" edge="1">
          <mxGeometry relative="1" as="geometry">
            <mxPoint x="650" y="290" as="sourcePoint" />
            <mxPoint x="580" y="295" as="targetPoint" />
          </mxGeometry>
        </mxCell>
        <mxCell id="KC0GCR72iDFEBpf8ADcb-41" value="1" style="resizable=0;html=1;whiteSpace=wrap;align=right;verticalAlign=bottom;" parent="KC0GCR72iDFEBpf8ADcb-40" connectable="0" vertex="1">
          <mxGeometry x="1" relative="1" as="geometry">
            <mxPoint x="70" y="3" as="offset" />
          </mxGeometry>
        </mxCell>
      </root>
    </mxGraphModel>
  </diagram>
</mxfile>
